<svg width="300" height="98" viewBox="0 0 300 98" fill="none" xmlns="http://www.w3.org/2000/svg">
<rect width="300" height="45" rx="22.5" fill="#222222"/>
<path d="M71.4302 28.108C71.0822 28.108 70.8002 28.006 70.5842 27.802C70.3802 27.586 70.2782 27.298 70.2782 26.938V16.408C70.2782 16.06 70.3742 15.79 70.5662 15.598C70.7702 15.406 71.0462 15.31 71.3942 15.31H75.8222C77.1782 15.31 78.2342 15.652 78.9902 16.336C79.7462 17.008 80.1242 17.956 80.1242 19.18C80.1242 20.404 79.7462 21.358 78.9902 22.042C78.2342 22.726 77.1782 23.068 75.8222 23.068H72.6002V26.938C72.6002 27.298 72.4922 27.586 72.2762 27.802C72.0722 28.006 71.7902 28.108 71.4302 28.108ZM75.5342 21.286C77.1302 21.286 77.9282 20.59 77.9282 19.198C77.9282 17.806 77.1302 17.11 75.5342 17.11H72.6002V21.286H75.5342ZM86.4505 18.982C87.6745 18.982 88.5805 19.288 89.1685 19.9C89.7685 20.5 90.0685 21.418 90.0685 22.654V27.046C90.0685 27.37 89.9725 27.628 89.7805 27.82C89.5885 28 89.3245 28.09 88.9885 28.09C88.6765 28.09 88.4185 27.994 88.2145 27.802C88.0225 27.61 87.9265 27.358 87.9265 27.046V26.65C87.7225 27.118 87.3985 27.484 86.9545 27.748C86.5225 28.012 86.0185 28.144 85.4425 28.144C84.8545 28.144 84.3205 28.024 83.8405 27.784C83.3605 27.544 82.9825 27.214 82.7065 26.794C82.4305 26.374 82.2925 25.906 82.2925 25.39C82.2925 24.742 82.4545 24.232 82.7785 23.86C83.1145 23.488 83.6545 23.218 84.3985 23.05C85.1425 22.882 86.1685 22.798 87.4765 22.798H87.9265V22.384C87.9265 21.796 87.8005 21.37 87.5485 21.106C87.2965 20.83 86.8885 20.692 86.3245 20.692C85.9765 20.692 85.6225 20.746 85.2625 20.854C84.9025 20.95 84.4765 21.094 83.9845 21.286C83.6725 21.442 83.4445 21.52 83.3005 21.52C83.0845 21.52 82.9045 21.442 82.7605 21.286C82.6285 21.13 82.5625 20.926 82.5625 20.674C82.5625 20.47 82.6105 20.296 82.7065 20.152C82.8145 19.996 82.9885 19.852 83.2285 19.72C83.6485 19.492 84.1465 19.312 84.7225 19.18C85.3105 19.048 85.8865 18.982 86.4505 18.982ZM85.8925 26.524C86.4925 26.524 86.9785 26.326 87.3505 25.93C87.7345 25.522 87.9265 25 87.9265 24.364V23.986H87.6025C86.7985 23.986 86.1745 24.022 85.7305 24.094C85.2865 24.166 84.9685 24.292 84.7765 24.472C84.5845 24.652 84.4885 24.898 84.4885 25.21C84.4885 25.594 84.6205 25.912 84.8845 26.164C85.1605 26.404 85.4965 26.524 85.8925 26.524ZM99.3932 19.666C99.4892 19.45 99.6152 19.294 99.7712 19.198C99.9392 19.09 100.119 19.036 100.311 19.036C100.587 19.036 100.833 19.132 101.049 19.324C101.277 19.504 101.391 19.732 101.391 20.008C101.391 20.14 101.355 20.278 101.283 20.422L96.3692 30.718C96.1652 31.126 95.8472 31.33 95.4152 31.33C95.1392 31.33 94.8932 31.24 94.6772 31.06C94.4732 30.892 94.3712 30.676 94.3712 30.412C94.3712 30.28 94.4072 30.13 94.4792 29.962L95.7032 27.388L92.3552 20.422C92.2952 20.302 92.2652 20.164 92.2652 20.008C92.2652 19.732 92.3792 19.498 92.6072 19.306C92.8472 19.114 93.1172 19.018 93.4172 19.018C93.6212 19.018 93.8072 19.072 93.9752 19.18C94.1432 19.276 94.2752 19.432 94.3712 19.648L96.8912 25.21L99.3932 19.666ZM121.315 19.684C121.399 19.468 121.519 19.306 121.675 19.198C121.843 19.09 122.023 19.036 122.215 19.036C122.491 19.036 122.737 19.132 122.953 19.324C123.181 19.504 123.295 19.732 123.295 20.008C123.295 20.164 123.265 20.302 123.205 20.422L120.235 27.388C120.139 27.616 119.989 27.79 119.785 27.91C119.593 28.03 119.377 28.09 119.137 28.09C118.909 28.09 118.693 28.03 118.489 27.91C118.297 27.79 118.153 27.616 118.057 27.388L115.915 22.24L113.845 27.388C113.749 27.616 113.599 27.79 113.395 27.91C113.203 28.03 112.987 28.09 112.747 28.09C112.519 28.09 112.303 28.03 112.099 27.91C111.895 27.79 111.745 27.616 111.649 27.388L108.697 20.422C108.637 20.266 108.607 20.134 108.607 20.026C108.607 19.75 108.727 19.516 108.967 19.324C109.207 19.12 109.471 19.018 109.759 19.018C109.963 19.018 110.149 19.072 110.317 19.18C110.485 19.288 110.611 19.45 110.695 19.666L112.819 25.156L114.997 19.72C115.093 19.492 115.231 19.324 115.411 19.216C115.591 19.096 115.789 19.036 116.005 19.036C116.221 19.036 116.419 19.096 116.599 19.216C116.779 19.324 116.917 19.492 117.013 19.72L119.209 25.174L121.315 19.684ZM127.147 28.108C126.823 28.108 126.553 28.018 126.337 27.838C126.133 27.646 126.031 27.376 126.031 27.028V20.08C126.031 19.732 126.133 19.468 126.337 19.288C126.553 19.108 126.823 19.018 127.147 19.018C127.471 19.018 127.741 19.108 127.957 19.288C128.173 19.468 128.281 19.732 128.281 20.08V27.028C128.281 27.376 128.173 27.646 127.957 27.838C127.741 28.018 127.471 28.108 127.147 28.108ZM127.147 17.416C126.739 17.416 126.415 17.308 126.175 17.092C125.935 16.864 125.815 16.57 125.815 16.21C125.815 15.85 125.935 15.562 126.175 15.346C126.415 15.13 126.739 15.022 127.147 15.022C127.543 15.022 127.861 15.13 128.101 15.346C128.353 15.562 128.479 15.85 128.479 16.21C128.479 16.57 128.359 16.864 128.119 17.092C127.879 17.308 127.555 17.416 127.147 17.416ZM136.46 26.434C137.06 26.47 137.36 26.74 137.36 27.244C137.36 27.532 137.24 27.754 137 27.91C136.772 28.054 136.442 28.114 136.01 28.09L135.524 28.054C133.508 27.91 132.5 26.83 132.5 24.814V20.89H131.6C131.276 20.89 131.024 20.818 130.844 20.674C130.676 20.53 130.592 20.32 130.592 20.044C130.592 19.768 130.676 19.558 130.844 19.414C131.024 19.27 131.276 19.198 131.6 19.198H132.5V17.542C132.5 17.218 132.602 16.96 132.806 16.768C133.01 16.576 133.286 16.48 133.634 16.48C133.97 16.48 134.24 16.576 134.444 16.768C134.648 16.96 134.75 17.218 134.75 17.542V19.198H136.28C136.604 19.198 136.85 19.27 137.018 19.414C137.198 19.558 137.288 19.768 137.288 20.044C137.288 20.32 137.198 20.53 137.018 20.674C136.85 20.818 136.604 20.89 136.28 20.89H134.75V24.976C134.75 25.864 135.158 26.338 135.974 26.398L136.46 26.434ZM144.581 18.982C146.645 18.982 147.677 20.188 147.677 22.6V27.028C147.677 27.364 147.575 27.628 147.371 27.82C147.179 28.012 146.909 28.108 146.561 28.108C146.213 28.108 145.937 28.012 145.733 27.82C145.529 27.628 145.427 27.364 145.427 27.028V22.6C145.427 21.964 145.295 21.502 145.031 21.214C144.779 20.914 144.377 20.764 143.825 20.764C143.177 20.764 142.655 20.968 142.259 21.376C141.875 21.784 141.683 22.33 141.683 23.014V27.028C141.683 27.364 141.581 27.628 141.377 27.82C141.173 28.012 140.897 28.108 140.549 28.108C140.201 28.108 139.925 28.012 139.721 27.82C139.529 27.628 139.433 27.364 139.433 27.028V16.264C139.433 15.952 139.535 15.7 139.739 15.508C139.955 15.316 140.231 15.22 140.567 15.22C140.903 15.22 141.173 15.31 141.377 15.49C141.581 15.67 141.683 15.916 141.683 16.228V20.422C141.983 19.954 142.379 19.6 142.871 19.36C143.375 19.108 143.945 18.982 144.581 18.982Z" fill="white"/>
<path fill-rule="evenodd" clip-rule="evenodd" d="M202.046 27.3614C202.17 27.469 202.268 27.6034 202.332 27.7545C202.397 27.9057 202.426 28.0695 202.418 28.2337C202.418 29.1751 201.876 29.6458 200.793 29.6459H191.483C191.139 29.667 190.801 29.5499 190.543 29.3204C190.285 29.0909 190.128 28.7678 190.107 28.4221C190.104 28.3778 190.104 28.3333 190.106 28.2889C190.106 28.0501 190.155 27.8139 190.25 27.5948C190.345 27.3758 190.483 27.1785 190.657 27.0153L198.341 18.708H192.392C192.003 18.7358 191.617 18.6229 191.304 18.3897C191.178 18.2776 191.08 18.1384 191.015 17.9825C190.951 17.8266 190.922 17.6581 190.932 17.4895C190.932 16.5665 191.474 16.105 192.557 16.105H201.454C201.64 16.096 201.827 16.1272 202 16.1965C202.173 16.2657 202.33 16.3714 202.46 16.5066C202.703 16.7637 202.837 17.1068 202.831 17.4619C202.82 17.9506 202.623 18.4164 202.28 18.7632L194.623 27.0429H200.958C201.347 27.0156 201.733 27.1286 202.046 27.3614" fill="white"/>
<path fill-rule="evenodd" clip-rule="evenodd" d="M215.846 23.1799C215.74 23.2859 215.612 23.3689 215.473 23.4236C215.333 23.4784 215.183 23.5038 215.034 23.4982H206.853C206.831 24.5203 207.201 25.5116 207.886 26.2674C208.248 26.5966 208.673 26.8494 209.134 27.0112C209.595 27.1729 210.084 27.2402 210.571 27.2092C211.163 27.2162 211.752 27.1368 212.321 26.9737C212.867 26.8064 213.39 26.569 213.877 26.2674C214.087 26.1464 214.324 26.0799 214.565 26.0738C214.706 26.0675 214.846 26.0958 214.973 26.1561C215.1 26.2164 215.211 26.307 215.295 26.4199C215.474 26.6641 215.566 26.9614 215.557 27.2644C215.559 27.5256 215.497 27.7832 215.377 28.0148C215.257 28.2465 215.082 28.4452 214.868 28.5937C214.27 29.0116 213.603 29.3208 212.899 29.5072C212.071 29.7488 211.213 29.87 210.351 29.8672C209.1 29.8965 207.861 29.6161 206.743 29.0507C205.74 28.5314 204.912 27.7272 204.36 26.7382C203.782 25.6689 203.492 24.4659 203.52 23.2491C203.497 21.9118 203.789 20.5881 204.374 19.3865C204.907 18.2907 205.738 17.3691 206.77 16.7281C207.832 16.0817 209.055 15.7504 210.296 15.7725C211.097 15.723 211.9 15.8483 212.649 16.1399C213.398 16.4316 214.075 16.8825 214.634 17.462C215.731 18.8162 216.277 20.5375 216.163 22.2799C216.173 22.4437 216.15 22.6078 216.096 22.7624C216.042 22.9171 215.957 23.0591 215.846 23.1799L215.846 23.1799ZM206.963 21.6431H213.243C213.325 20.7298 213.07 19.8183 212.527 19.0815C212.266 18.7873 211.942 18.5561 211.579 18.4051C211.217 18.2541 210.825 18.1872 210.434 18.2094C208.487 18.2094 207.33 19.354 206.963 21.6431" fill="white"/>
<path fill-rule="evenodd" clip-rule="evenodd" d="M230.023 17.005C230.871 18.0191 231.291 19.3255 231.194 20.6462C231.194 20.9972 231.185 21.265 231.167 21.4495L230.615 28.1504C230.609 28.3801 230.557 28.6064 230.463 28.8156C230.368 29.0249 230.233 29.213 230.065 29.3688C229.713 29.6716 229.261 29.83 228.798 29.8122C228.572 29.8261 228.346 29.794 228.133 29.7178C227.92 29.6416 227.724 29.5229 227.558 29.3688C227.408 29.2075 227.295 29.0143 227.228 28.8035C227.161 28.5927 227.142 28.3695 227.173 28.1504L227.724 21.5879C227.87 19.5386 227.062 18.5138 225.299 18.5138C224.863 18.4891 224.426 18.5578 224.017 18.7154C223.609 18.873 223.239 19.1158 222.93 19.4279C222.32 20.1382 221.97 21.0373 221.939 21.9755L221.416 28.1504C221.409 28.3801 221.358 28.6064 221.263 28.8156C221.168 29.0249 221.033 29.213 220.865 29.3688C220.513 29.6717 220.061 29.83 219.598 29.8122C219.374 29.8271 219.15 29.7954 218.939 29.7191C218.728 29.6428 218.535 29.5235 218.372 29.3688C218.225 29.2048 218.113 29.0117 218.044 28.8019C217.976 28.5921 217.951 28.3702 217.973 28.1504L218.854 17.4064C218.855 17.1857 218.905 16.9681 219.001 16.7694C219.096 16.5706 219.234 16.3957 219.405 16.2573C219.772 15.9649 220.231 15.8128 220.699 15.828C220.91 15.8152 221.121 15.8455 221.32 15.9168C221.519 15.9881 221.701 16.0991 221.856 16.2431C221.995 16.3882 222.097 16.5644 222.155 16.7571C222.212 16.9497 222.223 17.1534 222.187 17.3512L222.159 17.8769C222.627 17.2053 223.264 16.6703 224.005 16.3266C224.815 15.9487 225.701 15.7593 226.594 15.7726C227.22 15.728 227.847 15.8145 228.438 16.0267C229.028 16.2388 229.568 16.572 230.023 17.005" fill="white"/>
<path fill-rule="evenodd" clip-rule="evenodd" d="M184.371 16.8323C183.853 16.0298 183.06 15.4461 182.143 15.1915C181.225 14.937 180.247 15.0294 179.393 15.4512C178.675 15.8173 178.09 16.4011 177.721 17.1198C177.352 17.8386 177.217 18.6559 177.335 19.456C177.453 20.2562 177.819 20.9986 178.381 21.5782C178.942 22.1578 179.67 22.5452 180.463 22.6855C180.395 24.8538 179.484 26.9088 177.925 28.4095C176.367 29.9102 174.286 30.737 172.128 30.7126C169.97 30.6881 167.908 29.8142 166.383 28.2786C164.859 26.7429 163.995 24.6677 163.975 22.4984C163.971 20.8258 164.478 19.1922 165.427 17.8185C166.377 16.4448 167.723 15.3973 169.283 14.8174C169.58 14.7093 169.828 14.4964 169.98 14.2183C170.132 13.9401 170.179 13.6158 170.111 13.3059L170.101 13.2647C170.064 13.0979 170.06 12.9253 170.089 12.7569C170.118 12.5884 170.18 12.4274 170.271 12.2829C170.361 12.1385 170.48 12.0134 170.619 11.915C170.758 11.8165 170.915 11.7465 171.081 11.709C171.138 11.6962 171.195 11.6872 171.253 11.682C171.574 11.6525 171.897 11.6377 172.221 11.6374C172.622 11.6375 173.023 11.6596 173.422 11.7037C173.594 11.7225 173.767 11.7072 173.932 11.6587C174.098 11.6102 174.252 11.5294 174.387 11.4209C174.521 11.3123 174.633 11.1783 174.716 11.0263C174.799 10.8743 174.851 10.7074 174.87 10.5351C174.872 10.5111 174.875 10.4874 174.876 10.4636C174.885 10.1174 174.762 9.78078 174.533 9.5227C174.303 9.26462 173.984 9.10466 173.641 9.07565C170.939 8.78696 168.214 9.32867 165.826 10.6293C163.437 11.9298 161.497 13.9282 160.261 16.3603C159.026 18.7925 158.553 21.5442 158.906 24.252C159.258 26.9599 160.42 29.4966 162.236 31.5272C164.053 33.5578 166.439 34.9868 169.08 35.6255C171.721 36.2643 174.493 36.0827 177.029 35.1049C179.566 34.127 181.748 32.3988 183.287 30.1484C184.826 27.898 185.65 25.2313 185.65 22.5003C185.65 21.1806 185.386 18.3353 184.371 16.8323" fill="white"/>
<path fill-rule="evenodd" clip-rule="evenodd" d="M177.286 10.0258C177.561 10.0257 177.83 10.1077 178.059 10.2614C178.288 10.415 178.466 10.6334 178.571 10.889C178.677 11.1445 178.704 11.4257 178.651 11.697C178.597 11.9682 178.464 12.2174 178.27 12.413C178.075 12.6086 177.827 12.7418 177.558 12.7957C177.288 12.8497 177.008 12.822 176.754 12.7161C176.5 12.6103 176.282 12.431 176.13 12.201C175.977 11.9711 175.895 11.7007 175.895 11.4241C175.895 11.0532 176.042 10.6976 176.303 10.4353C176.563 10.1731 176.917 10.0258 177.286 10.0258Z" fill="white"/>
<path d="M20 97.25C14.5264 97.25 11.7793 97.25 9.80029 96.2422C8.05767 95.3581 6.64191 93.942 5.75829 92.1992C4.75 90.2207 4.75 87.4736 4.75 82V69C4.75 63.5264 4.75 60.7793 5.7583 58.8003C6.64214 57.0576 8.05806 55.6416 9.80078 54.7578C11.7793 53.75 14.5264 53.75 20 53.75H58C63.4736 53.75 66.2207 53.75 68.1992 54.7583C69.9422 55.642 71.3583 57.0579 72.2422 58.8008C73.25 60.7793 73.25 63.5264 73.25 69V82C73.25 87.4736 73.25 90.2207 72.2422 92.1992C71.3585 93.9423 69.9423 95.3585 68.1992 96.2422C66.2207 97.25 63.4736 97.25 58 97.25H20Z" fill="white"/>
<path fill-rule="evenodd" clip-rule="evenodd" d="M58 54.5H20C17.175 54.5 15.1464 54.5012 13.5542 54.6313C11.9794 54.7599 10.9639 55.0072 10.1411 55.4264C8.5417 56.2414 7.24137 57.5417 6.42644 59.1411C6.00718 59.9639 5.75992 60.9794 5.63126 62.5542C5.50117 64.1464 5.5 66.175 5.5 69V82C5.5 84.825 5.50117 86.8536 5.63126 88.4458C5.75992 90.0206 6.00718 91.0361 6.42644 91.8589C7.24137 93.4583 8.5417 94.7586 10.1411 95.5736C10.9639 95.9928 11.9794 96.2401 13.5542 96.3687C15.1464 96.4988 17.175 96.5 20 96.5H58C60.825 96.5 62.8536 96.4988 64.4458 96.3687C66.0206 96.2401 67.0361 95.9928 67.8589 95.5736C69.4583 94.7586 70.7586 93.4583 71.5736 91.8589C71.9928 91.0361 72.2401 90.0206 72.3687 88.4458C72.4988 86.8536 72.5 84.825 72.5 82V69C72.5 66.175 72.4988 64.1464 72.3687 62.5542C72.2401 60.9794 71.9928 59.9639 71.5736 59.1411C70.7586 57.5417 69.4583 56.2414 67.8589 55.4264C67.0361 55.0072 66.0206 54.7599 64.4458 54.6313C62.8536 54.5012 60.825 54.5 58 54.5ZM5.08993 58.4601C4 60.5992 4 63.3995 4 69V82C4 87.6005 4 90.4008 5.08993 92.5399C6.04867 94.4215 7.57847 95.9513 9.46009 96.9101C11.5992 98 14.3995 98 20 98H58C63.6005 98 66.4008 98 68.5399 96.9101C70.4215 95.9513 71.9513 94.4215 72.9101 92.5399C74 90.4008 74 87.6005 74 82V69C74 63.3995 74 60.5992 72.9101 58.4601C71.9513 56.5785 70.4215 55.0487 68.5399 54.0899C66.4008 53 63.6005 53 58 53H20C14.3995 53 11.5992 53 9.46009 54.0899C7.57847 55.0487 6.04867 56.5785 5.08993 58.4601Z" fill="#222222"/>
<path d="M44.2054 66.1266H33.7946V84.8749H44.2054V66.1266Z" fill="#FF5F00"/>
<path d="M34.4562 75.5C34.4546 73.6944 34.8629 71.9121 35.6502 70.288C36.4375 68.6639 37.5832 67.2406 39.0006 66.1258C37.2454 64.7433 35.1374 63.8835 32.9177 63.6447C30.6979 63.4059 28.4559 63.7979 26.4479 64.7757C24.4399 65.7535 22.747 67.2777 21.5625 69.1741C20.3781 71.0706 19.75 73.2627 19.75 75.5C19.75 77.7373 20.3781 79.9294 21.5625 81.8258C22.747 83.7223 24.4399 85.2465 26.4479 86.2243C28.4559 87.2021 30.6979 87.594 32.9177 87.3553C35.1374 87.1165 37.2454 86.2567 39.0006 84.8742C37.5832 83.7594 36.4375 82.3361 35.6502 80.712C34.8629 79.0879 34.4546 77.3056 34.4562 75.5Z" fill="#EB001B"/>
<path d="M58.25 75.5C58.2501 77.7372 57.622 79.9294 56.4377 81.8258C55.2533 83.7223 53.5604 85.2465 51.5524 86.2243C49.5445 87.2021 47.3025 87.594 45.0828 87.3553C42.8631 87.1165 40.7551 86.2567 39 84.8742C40.4161 83.7583 41.5609 82.3347 42.3481 80.7109C43.1353 79.0871 43.5443 77.3053 43.5443 75.5C43.5443 73.6947 43.1353 71.9129 42.3481 70.2891C41.5609 68.6653 40.4161 67.2417 39 66.1258C40.7551 64.7432 42.8631 63.8834 45.0828 63.6447C47.3025 63.4059 49.5445 63.7979 51.5524 64.7757C53.5604 65.7535 55.2533 67.2777 56.4377 69.1742C57.622 71.0706 58.2501 73.2628 58.25 75.5Z" fill="#F79E1B"/>
<path d="M57.1149 82.8908V82.507H57.2694V82.4288H56.876V82.507H57.0305V82.8908H57.1149ZM57.8785 82.8908V82.428H57.758L57.6193 82.7464L57.4806 82.428H57.36V82.8908H57.4451V82.5417L57.5751 82.8427H57.6634L57.7935 82.541V82.8908H57.8785Z" fill="#F79E1B"/>
<path d="M94 97.25C88.5264 97.25 85.7793 97.25 83.8003 96.2422C82.0577 95.3581 80.6419 93.942 79.7583 92.1992C78.75 90.2207 78.75 87.4736 78.75 82V69C78.75 63.5264 78.75 60.7793 79.7583 58.8003C80.6421 57.0576 82.0581 55.6416 83.8008 54.7578C85.7793 53.75 88.5264 53.75 94 53.75H132C137.474 53.75 140.221 53.75 142.199 54.7583C143.942 55.642 145.358 57.0579 146.242 58.8008C147.25 60.7793 147.25 63.5264 147.25 69V82C147.25 87.4736 147.25 90.2207 146.242 92.1992C145.358 93.9423 143.942 95.3585 142.199 96.2422C140.221 97.25 137.474 97.25 132 97.25H94Z" fill="white"/>
<path fill-rule="evenodd" clip-rule="evenodd" d="M132 54.5H94C91.175 54.5 89.1464 54.5012 87.5542 54.6313C85.9794 54.7599 84.9639 55.0072 84.1411 55.4264C82.5417 56.2414 81.2414 57.5417 80.4264 59.1411C80.0072 59.9639 79.7599 60.9794 79.6313 62.5542C79.5012 64.1464 79.5 66.175 79.5 69V82C79.5 84.825 79.5012 86.8536 79.6313 88.4458C79.7599 90.0206 80.0072 91.0361 80.4264 91.8589C81.2414 93.4583 82.5417 94.7586 84.1411 95.5736C84.9639 95.9928 85.9794 96.2401 87.5542 96.3687C89.1464 96.4988 91.175 96.5 94 96.5H132C134.825 96.5 136.854 96.4988 138.446 96.3687C140.021 96.2401 141.036 95.9928 141.859 95.5736C143.458 94.7586 144.759 93.4583 145.574 91.8589C145.993 91.0361 146.24 90.0206 146.369 88.4458C146.499 86.8536 146.5 84.825 146.5 82V69C146.5 66.175 146.499 64.1464 146.369 62.5542C146.24 60.9794 145.993 59.9639 145.574 59.1411C144.759 57.5417 143.458 56.2414 141.859 55.4264C141.036 55.0072 140.021 54.7599 138.446 54.6313C136.854 54.5012 134.825 54.5 132 54.5ZM79.0899 58.4601C78 60.5992 78 63.3995 78 69V82C78 87.6005 78 90.4008 79.0899 92.5399C80.0487 94.4215 81.5785 95.9513 83.4601 96.9101C85.5992 98 88.3995 98 94 98H132C137.601 98 140.401 98 142.54 96.9101C144.422 95.9513 145.951 94.4215 146.91 92.5399C148 90.4008 148 87.6005 148 82V69C148 63.3995 148 60.5992 146.91 58.4601C145.951 56.5785 144.422 55.0487 142.54 54.0899C140.401 53 137.601 53 132 53H94C88.3995 53 85.5992 53 83.4601 54.0899C81.5785 55.0487 80.0487 56.5785 79.0899 58.4601Z" fill="#222222"/>
<path fill-rule="evenodd" clip-rule="evenodd" d="M122.867 77.6695C122.877 75.5316 120.914 74.6022 119.344 73.8586C118.29 73.3593 117.412 72.9437 117.427 72.3024C117.439 71.8168 117.952 71.3009 119.074 71.1683C120.387 71.0558 121.71 71.2652 122.902 71.774L123.584 68.9032C122.423 68.5095 121.193 68.3064 119.952 68.3024C116.114 68.3024 113.413 70.1431 113.391 72.7782C113.365 74.7287 115.319 75.815 116.79 76.4636C118.303 77.1272 118.81 77.5526 118.804 78.1462C118.793 79.0554 117.598 79.4557 116.481 79.4718C114.587 79.4982 113.464 79.0252 112.574 78.6505L112.493 78.6162L111.79 81.5834C112.696 81.9588 114.37 82.2864 116.107 82.3024C120.187 82.3024 122.854 80.4854 122.867 77.6695ZM106.785 68.5501L100.494 82.0904H96.3901L93.2942 71.2844C93.1062 70.6193 92.9433 70.3747 92.3723 70.0953C91.4388 69.6378 89.8972 69.2094 88.5416 68.9429L88.633 68.5501H95.24C96.1329 68.5488 96.8929 69.1353 97.0307 69.9306L98.6656 77.7659L102.707 68.5501H106.785ZM136.592 82.0904H133.001L132.532 80.0677H127.551L126.741 82.0904H122.665L128.491 69.5432C128.764 68.938 129.419 68.5443 130.144 68.5501H133.458L136.592 82.0904ZM128.669 77.2928L130.713 72.2087L131.889 77.2928H128.669ZM109.123 82.0904L112.333 68.5501H108.451L105.239 82.0904H109.123Z" fill="url(#paint0_linear_261:21164)"/>
<path d="M168 97.25C162.526 97.25 159.779 97.25 157.8 96.2422C156.058 95.3581 154.642 93.942 153.758 92.1992C152.75 90.2207 152.75 87.4736 152.75 82V69C152.75 63.5264 152.75 60.7793 153.758 58.8003C154.642 57.0576 156.058 55.6416 157.801 54.7578C159.779 53.75 162.526 53.75 168 53.75H206C211.474 53.75 214.221 53.75 216.199 54.7583C217.942 55.642 219.358 57.0579 220.242 58.8008C221.25 60.7793 221.25 63.5264 221.25 69V82C221.25 87.4736 221.25 90.2207 220.242 92.1992C219.358 93.9423 217.942 95.3585 216.199 96.2422C214.221 97.25 211.474 97.25 206 97.25H168Z" fill="white"/>
<path fill-rule="evenodd" clip-rule="evenodd" d="M206 54.5H168C165.175 54.5 163.146 54.5012 161.554 54.6313C159.979 54.7599 158.964 55.0072 158.141 55.4264C156.542 56.2414 155.241 57.5417 154.426 59.1411C154.007 59.9639 153.76 60.9794 153.631 62.5542C153.501 64.1464 153.5 66.175 153.5 69V82C153.5 84.825 153.501 86.8536 153.631 88.4458C153.76 90.0206 154.007 91.0361 154.426 91.8589C155.241 93.4583 156.542 94.7586 158.141 95.5736C158.964 95.9928 159.979 96.2401 161.554 96.3687C163.146 96.4988 165.175 96.5 168 96.5H206C208.825 96.5 210.854 96.4988 212.446 96.3687C214.021 96.2401 215.036 95.9928 215.859 95.5736C217.458 94.7586 218.759 93.4583 219.574 91.8589C219.993 91.0361 220.24 90.0206 220.369 88.4458C220.499 86.8536 220.5 84.825 220.5 82V69C220.5 66.175 220.499 64.1464 220.369 62.5542C220.24 60.9794 219.993 59.9639 219.574 59.1411C218.759 57.5417 217.458 56.2414 215.859 55.4264C215.036 55.0072 214.021 54.7599 212.446 54.6313C210.854 54.5012 208.825 54.5 206 54.5ZM153.09 58.4601C152 60.5992 152 63.3995 152 69V82C152 87.6005 152 90.4008 153.09 92.5399C154.049 94.4215 155.578 95.9513 157.46 96.9101C159.599 98 162.399 98 168 98H206C211.601 98 214.401 98 216.54 96.9101C218.422 95.9513 219.951 94.4215 220.91 92.5399C222 90.4008 222 87.6005 222 82V69C222 63.3995 222 60.5992 220.91 58.4601C219.951 56.5785 218.422 55.0487 216.54 54.0899C214.401 53 211.601 53 206 53H168C162.399 53 159.599 53 157.46 54.0899C155.578 55.0487 154.049 56.5785 153.09 58.4601Z" fill="#222222"/>
<path d="M171.355 68.9503C171.932 68.2562 172.324 67.3238 172.221 66.371C171.376 66.4116 170.344 66.9072 169.746 67.6024C169.21 68.1972 168.736 69.1684 168.86 70.0809C169.808 70.1599 170.757 69.6252 171.355 68.9503Z" fill="#222222"/>
<path d="M172.21 70.2593C171.372 70.2115 170.61 70.4999 169.993 70.7332C169.596 70.8835 169.259 71.011 169.001 71.011C168.717 71.011 168.368 70.8783 167.975 70.729C167.458 70.5326 166.865 70.3074 166.245 70.3183C164.826 70.3382 163.51 71.1095 162.79 72.3357C161.309 74.7886 162.399 78.4275 163.839 80.4257C164.538 81.4143 165.381 82.5026 166.492 82.4634C166.978 82.4451 167.328 82.3035 167.689 82.1568C168.108 81.9869 168.544 81.8103 169.228 81.8103C169.881 81.8103 170.296 81.9815 170.695 82.1459C171.076 82.3026 171.442 82.4532 171.984 82.4435C173.136 82.424 173.856 81.4546 174.556 80.4652C175.32 79.3918 175.654 78.3539 175.702 78.206L175.707 78.1906C175.705 78.1894 175.696 78.1851 175.679 78.1776C175.422 78.0643 173.485 77.2088 173.465 74.9266C173.446 73.0114 174.991 72.0399 175.243 71.8809C175.259 71.8709 175.27 71.864 175.275 71.8605C174.288 70.4574 172.745 70.2991 172.21 70.2593Z" fill="#222222"/>
<path fill-rule="evenodd" clip-rule="evenodd" d="M191.034 72.3767C191.034 69.4873 188.948 67.5028 185.952 67.5028H180.164V82.3403H182.56V77.2712H185.878C188.905 77.2712 191.034 75.2766 191.034 72.3767ZM185.31 75.3382H182.56V69.4464H185.321C187.396 69.4464 188.584 70.5154 188.584 72.3872C188.584 74.2586 187.396 75.3382 185.31 75.3382Z" fill="#222222"/>
<path fill-rule="evenodd" clip-rule="evenodd" d="M191.628 79.2662C191.628 77.3636 193.137 76.2735 195.919 76.1091L198.904 75.9341V75.1118C198.904 73.9091 198.08 73.2509 196.614 73.2509C195.405 73.2509 194.528 73.8471 194.347 74.7622H192.185C192.25 72.8393 194.132 71.4414 196.679 71.4414C199.417 71.4414 201.204 72.819 201.204 74.9578V82.3403H198.99V80.562H198.936C198.304 81.7237 196.914 82.4533 195.405 82.4533C193.18 82.4533 191.628 81.1785 191.628 79.2662ZM198.904 78.3098V77.4766L196.24 77.6411C194.743 77.7338 193.961 78.2685 193.961 79.2042C193.961 80.1092 194.775 80.6953 196.048 80.6953C197.674 80.6953 198.904 79.698 198.904 78.3098Z" fill="#222222"/>
<path d="M203.241 84.5311V86.3094C203.401 86.3507 203.989 86.371 204.171 86.371C206.504 86.371 207.605 85.5179 208.568 82.9162L212.773 71.5749H210.333L207.509 80.3347H207.455L204.631 71.5749H202.128L206.182 82.3713L205.968 83.0292C205.604 84.1402 205.006 84.5717 203.947 84.5717C203.754 84.5717 203.39 84.551 203.241 84.5311Z" fill="#222222"/>
<path d="M242 97.25C236.526 97.25 233.779 97.25 231.8 96.2422C230.058 95.3581 228.642 93.942 227.758 92.1992C226.75 90.2207 226.75 87.4736 226.75 82V69C226.75 63.5264 226.75 60.7793 227.758 58.8003C228.642 57.0576 230.058 55.6416 231.801 54.7578C233.779 53.75 236.526 53.75 242 53.75H280C285.474 53.75 288.221 53.75 290.199 54.7583C291.942 55.642 293.358 57.0579 294.242 58.8008C295.25 60.7793 295.25 63.5264 295.25 69V82C295.25 87.4736 295.25 90.2207 294.242 92.1992C293.358 93.9423 291.942 95.3585 290.199 96.2422C288.221 97.25 285.474 97.25 280 97.25H242Z" fill="white"/>
<path fill-rule="evenodd" clip-rule="evenodd" d="M280 54.5H242C239.175 54.5 237.146 54.5012 235.554 54.6313C233.979 54.7599 232.964 55.0072 232.141 55.4264C230.542 56.2414 229.241 57.5417 228.426 59.1411C228.007 59.9639 227.76 60.9794 227.631 62.5542C227.501 64.1464 227.5 66.175 227.5 69V82C227.5 84.825 227.501 86.8536 227.631 88.4458C227.76 90.0206 228.007 91.0361 228.426 91.8589C229.241 93.4583 230.542 94.7586 232.141 95.5736C232.964 95.9928 233.979 96.2401 235.554 96.3687C237.146 96.4988 239.175 96.5 242 96.5H280C282.825 96.5 284.854 96.4988 286.446 96.3687C288.021 96.2401 289.036 95.9928 289.859 95.5736C291.458 94.7586 292.759 93.4583 293.574 91.8589C293.993 91.0361 294.24 90.0206 294.369 88.4458C294.499 86.8536 294.5 84.825 294.5 82V69C294.5 66.175 294.499 64.1464 294.369 62.5542C294.24 60.9794 293.993 59.9639 293.574 59.1411C292.759 57.5417 291.458 56.2414 289.859 55.4264C289.036 55.0072 288.021 54.7599 286.446 54.6313C284.854 54.5012 282.825 54.5 280 54.5ZM227.09 58.4601C226 60.5992 226 63.3995 226 69V82C226 87.6005 226 90.4008 227.09 92.5399C228.049 94.4215 229.578 95.9513 231.46 96.9101C233.599 98 236.399 98 242 98H280C285.601 98 288.401 98 290.54 96.9101C292.422 95.9513 293.951 94.4215 294.91 92.5399C296 90.4008 296 87.6005 296 82V69C296 63.3995 296 60.5992 294.91 58.4601C293.951 56.5785 292.422 55.0487 290.54 54.0899C288.401 53 285.601 53 280 53H242C236.399 53 233.599 53 231.46 54.0899C229.578 55.0487 228.049 56.5785 227.09 58.4601Z" fill="#222222"/>
<path fill-rule="evenodd" clip-rule="evenodd" d="M258.929 82.6859V76.6702H262.271C263.642 76.6702 264.801 76.2532 265.74 75.4094C266.71 74.5656 267.195 73.5233 267.195 72.2625C267.195 71.0316 266.71 69.9893 265.74 69.1355C264.791 68.2818 263.631 67.8549 262.271 67.8549H256.905V82.6859H258.929ZM258.929 74.8535V69.6914H262.313C263.125 69.6914 263.789 69.9495 264.316 70.4757C264.854 70.982 265.128 71.5875 265.128 72.2725C265.128 72.9674 264.854 73.5828 264.316 74.0891C263.789 74.5954 263.114 74.8535 262.313 74.8535H258.929Z" fill="#222222"/>
<path fill-rule="evenodd" clip-rule="evenodd" d="M276.03 73.3347C275.165 72.5802 273.984 72.203 272.487 72.203C270.568 72.203 269.113 72.8681 268.133 74.2082L269.915 75.2605C270.568 74.3572 271.465 73.9104 272.593 73.9104C273.341 73.9104 273.995 74.1388 274.554 74.6053C275.112 75.0719 275.387 75.6278 275.387 76.2929V76.7297C274.617 76.3128 273.626 76.1043 272.424 76.1043C271.022 76.1043 269.894 76.4121 269.05 77.0375C268.207 77.6529 267.785 78.4868 267.785 79.5391C267.785 80.5318 268.186 81.3557 268.987 82.0208C269.788 82.6859 270.779 83.0135 271.971 83.0135C273.362 83.0135 274.48 82.4378 275.313 81.2763H275.397V82.6859H277.326V76.4319C277.326 75.1215 276.894 74.0891 276.03 73.3347ZM270.547 80.8097C270.094 80.4821 269.873 80.0652 269.873 79.5689C269.873 79.0229 270.147 78.5563 270.705 78.1691C271.254 77.8018 271.939 77.6132 272.761 77.6132C273.889 77.6132 274.764 77.8515 275.397 78.318C275.397 79.1221 275.06 79.817 274.395 80.4127C273.731 81.0083 272.972 81.3061 272.118 81.3061C271.517 81.3061 270.99 81.1373 270.547 80.8097Z" fill="#222222"/>
<path d="M281.586 87.1432L288.333 72.5306H286.13L283.009 79.817H282.967L279.762 72.5306H277.558L282.008 82.0308L279.498 87.1432H281.586Z" fill="#222222"/>
<path d="M252.218 75.6096C252.218 74.9722 252.161 74.3623 252.055 73.7758H243.874V77.1358L248.585 77.1369C248.394 78.2549 247.779 79.2079 246.837 79.8433V82.0232H249.642C251.279 80.5051 252.218 78.261 252.218 75.6096Z" fill="#4285F4"/>
<path d="M246.838 79.8434C246.057 80.3708 245.052 80.6793 243.876 80.6793C241.604 80.6793 239.676 79.1459 238.986 77.0789H236.093V79.3271C237.526 82.1761 240.472 84.131 243.876 84.131C246.228 84.131 248.204 83.3562 249.643 82.0223L246.838 79.8434Z" fill="#34A853"/>
<path d="M238.713 75.4111C238.713 74.8307 238.81 74.2696 238.986 73.7422V71.494H236.093C235.5 72.6721 235.167 74.0019 235.167 75.4111C235.167 76.8202 235.501 78.15 236.093 79.3281L238.986 77.0799C238.81 76.5525 238.713 75.9914 238.713 75.4111Z" fill="#FABB05"/>
<path d="M243.876 70.1419C245.16 70.1419 246.309 70.5848 247.217 71.4503L249.703 68.9628C248.193 67.5546 246.225 66.6902 243.876 66.6902C240.473 66.6902 237.526 68.6451 236.093 71.4941L238.986 73.7423C239.676 71.6753 241.604 70.1419 243.876 70.1419Z" fill="#E94235"/>
<defs>
<linearGradient id="paint0_linear_261:21164" x1="88.3955" y1="73.294" x2="136.738" y2="72.7704" gradientUnits="userSpaceOnUse">
<stop stop-color="#131D60"/>
<stop offset="1" stop-color="#002B98"/>
</linearGradient>
</defs>
</svg>
